<?xml version="1.0" encoding="UTF-8"?>
<svg id="Capa_2" xmlns="http://www.w3.org/2000/svg" viewBox="0 0 123.05 24.54">
  <defs>
    <style>
      .cls-1 {
        fill: #fff;
      }
    </style>
  </defs>
  <g id="Capa_1-2" data-name="Capa_1">
    <g>
      <path class="cls-1" d="M21.9,1.36c-.43,1.11-.81,2.27-1.13,3.5-.32,1.17-.54,2.07-.68,2.73h-.65c.02-.26.03-.6.03-1.04,0-1.62-.32-2.78-.95-3.47-.63-.69-1.52-1.04-2.67-1.04h-.09c-.61,0-1.08.05-1.39.16-.32.11-.56.33-.74.67-.18.34-.36.88-.53,1.63l-1.87,6.99h.83c.89,0,1.7-.3,2.44-.89.74-.59,1.34-1.4,1.79-2.43h.65c-.36,1.11-.69,2.31-1.01,3.62-.26,1.07-.56,2.57-.92,4.5h-.65c0-1.36-.24-2.4-.71-3.13-.47-.72-1.15-1.08-2.02-1.08h-.56l-1.9,7.11c-.14.49-.21.93-.21,1.3,0,.47.18.79.53.95.36.16,1.03.26,2.02.3l-.12.59c-1.32-.06-3.29-.09-5.9-.09s-4.33.03-5.51.09l.12-.59c.71-.04,1.24-.12,1.6-.24.36-.12.64-.35.84-.68s.41-.88.61-1.63l3.91-14.7c.16-.67.24-1.15.24-1.42,0-.43-.14-.72-.43-.86-.29-.14-.81-.23-1.56-.27l.15-.59c2.27.06,5.7.09,10.28.09,2.84,0,4.89-.03,6.13-.09Z"/>
      <path class="cls-1" d="M39.77,1.36c-.49,1.3-.87,2.47-1.13,3.5-.12.43-.25,1.05-.39,1.84h-.65c.02-1.7-.27-2.9-.86-3.6-.59-.7-1.5-1.05-2.73-1.05h-.09c-.69,0-1.21.05-1.56.16-.35.11-.62.33-.81.67-.2.34-.4.88-.59,1.63l-1.87,6.99h.53c.93,0,1.78-.33,2.55-.98.77-.65,1.33-1.43,1.69-2.34h.65c-.32.97-.58,1.91-.8,2.82l-.21.8c-.14.53-.27,1.07-.39,1.6s-.25,1.21-.39,2.02h-.65c0-.85-.23-1.62-.68-2.3-.45-.68-1.19-1.02-2.19-1.02h-.27l-1.9,7.11c-.18.75-.27,1.23-.27,1.45,0,.41.14.69.43.82.29.13.8.19,1.53.19h.39c1.42,0,2.62-.39,3.6-1.17.98-.78,1.94-2.14,2.89-4.08h.65c-.16.43-.37,1.15-.62,2.13-.34,1.17-.59,2.43-.77,3.79-1.34-.06-3.58-.09-6.7-.09-4.58,0-8.02.03-10.31.09l.12-.59c.71-.04,1.24-.12,1.6-.24.36-.12.64-.35.84-.68s.41-.88.61-1.63l3.91-14.7c.16-.67.24-1.15.24-1.42,0-.43-.14-.72-.43-.86-.29-.14-.81-.23-1.56-.27l.15-.59c2.27.06,5.7.09,10.28.09,2.84,0,4.89-.03,6.13-.09Z"/>
      <path class="cls-1" d="M58.83,18.76h.68l-.12.39c-.4,1.24-1,2.16-1.82,2.74-.82.58-1.94.87-3.36.87s-2.49-.27-3.2-.8c-.71-.53-1.07-1.29-1.07-2.28,0-.16.02-.41.06-.77l.56-3.38c.06-.36.09-.68.09-.98,0-.73-.21-1.29-.64-1.67-.43-.39-1.17-.61-2.24-.67l-1.84,6.99c-.02.1-.07.32-.16.65-.09.34-.13.6-.13.8,0,.36.15.62.44.79.3.17.82.27,1.57.31l-.12.59c-1.36-.06-3.12-.09-5.28-.09-2.49,0-4.33.03-5.51.09l.12-.59c.71-.04,1.24-.12,1.6-.24.36-.12.64-.35.84-.68s.41-.88.61-1.63l3.88-14.7c.18-.67.27-1.14.27-1.39,0-.38-.14-.65-.43-.83-.29-.18-.81-.29-1.56-.33l.15-.59c1.15.06,2.83.09,5.04.09l2.85-.03c.41-.02.98-.03,1.69-.03,2.73,0,4.72.32,5.97.95,1.25.63,1.88,1.68,1.88,3.14,0,1.8-.84,3.27-2.5,4.43-1.67,1.16-3.95,1.86-6.83,2.12,1.98.12,3.5.42,4.58.9,1.08.48,1.62,1.32,1.62,2.5,0,.16-.02.4-.06.71l-.5,3.08c-.04.36-.06.58-.06.68,0,.77.32,1.16.95,1.16.42,0,.77-.16,1.05-.47.29-.32.55-.79.79-1.42l.15-.41ZM50.66,2.28c-.23.22-.42.62-.58,1.22l-2.16,8.21c.95-.04,1.86-.32,2.74-.83.88-.51,1.6-1.28,2.18-2.3.57-1.02.86-2.26.86-3.72,0-1.94-.69-2.9-2.07-2.9-.41,0-.74.11-.96.33Z"/>
      <path class="cls-1" d="M62.98,8.86c1.2-2.29,2.88-4.18,5.04-5.68,2.15-1.49,4.58-2.24,7.29-2.24s4.89.62,6.45,1.87c1.55,1.24,2.33,3,2.33,5.28s-.61,4.49-1.82,6.77c-1.21,2.28-2.9,4.17-5.07,5.66-2.16,1.49-4.59,2.24-7.28,2.24s-4.89-.62-6.43-1.87c-1.54-1.24-2.31-2.99-2.31-5.25s.6-4.49,1.81-6.79ZM71.44,3.62c-1.16,1.42-2.09,3.26-2.8,5.51s-1.07,4.55-1.07,6.91c0,1.92.24,3.43.73,4.53.48,1.11,1.11,1.66,1.88,1.66,1.24,0,2.44-.71,3.6-2.13s2.09-3.26,2.8-5.51,1.07-4.55,1.07-6.91c0-1.92-.24-3.43-.73-4.53-.48-1.11-1.11-1.66-1.88-1.66-1.24,0-2.44.71-3.6,2.13Z"/>
      <path class="cls-1" d="M109.93.9c.64.6.96,1.36.96,2.27s-.32,1.68-.95,2.25c-.63.57-1.42.86-2.37.86-.81,0-1.45-.19-1.93-.58-.47-.39-.71-.92-.71-1.62,0-.87.29-1.61.87-2.21s1.32-.98,2.21-1.14c-.16-.16-.41-.24-.74-.24-.47,0-.93.15-1.36.44s-.82.69-1.16,1.19c-.87,1.3-1.78,3.6-2.73,6.89s-2.03,7.78-3.23,13.47h-.65l-7.76-14.11c-.77,3.69-1.51,6.79-2.21,9.28s-1.37,4.16-2,5.01c-.43.57-.89,1.03-1.38,1.36-.48.34-1.08.5-1.79.5-1.03,0-1.86-.3-2.5-.9-.64-.6-.96-1.36-.96-2.27s.32-1.68.95-2.25c.63-.57,1.42-.86,2.37-.86.81,0,1.45.19,1.93.58.47.39.71.92.71,1.62,0,.87-.29,1.61-.87,2.21-.58.6-1.32.98-2.21,1.14.16.16.4.24.74.24.99,0,1.84-.55,2.55-1.66.73-1.17,1.49-3.25,2.28-6.24.79-2.99,1.65-6.86,2.58-11.6v-.03c.12-.57.18-1.02.18-1.33,0-.47-.16-.79-.47-.93-.32-.15-.92-.24-1.81-.28l.15-.59c.61.06,1.49.09,2.64.09.93,0,1.73-.03,2.4-.09l6.49,12.6c1.48-6.22,2.85-10.24,4.09-12.06.87-1.26,1.94-1.9,3.2-1.9,1.03,0,1.86.3,2.5.9Z"/>
      <path class="cls-1" d="M122.1,21.28c.28.3.59.45.95.47l-.12.59c-1.15-.06-2.82-.09-5.01-.09s-3.97.03-5.04.09l.12-.59c.67-.04,1.2-.12,1.57-.25.38-.13.64-.37.8-.71.16-.35.22-.85.18-1.53l-.27-4.86h-5.81l-2.87,4.06c-.47.67-.71,1.24-.71,1.69,0,.93.91,1.46,2.73,1.6l-.12.59c-2.04-.06-3.44-.09-4.21-.09-.67,0-1.31.03-1.93.09l.12-.59c.55-.16,1.07-.47,1.56-.95.48-.47,1.17-1.33,2.06-2.58L118.19,1.22c.47.04.85.06,1.13.06.3,0,.66-.02,1.1-.06l1.19,18.64c.06.65.23,1.13.5,1.42ZM115.25,13.81l-.36-7.05-5.01,7.05h5.36Z"/>
    </g>
  </g>
</svg>